<mxfile host="app.diagrams.net" modified="2020-06-24T00:35:44.642Z" agent="5.0 (Macintosh; Intel Mac OS X 10_15_5) AppleWebKit/537.36 (KHTML, like Gecko) Chrome/83.0.4103.106 Safari/537.36" etag="g1fvpPv6R356TszmaDqq" version="13.1.1" type="github">
  <diagram id="Wy2fdePZcEcgJuRb0x6n" name="Page-1">
    <mxGraphModel dx="2852" dy="1588" grid="1" gridSize="10" guides="1" tooltips="1" connect="1" arrows="1" fold="1" page="1" pageScale="1" pageWidth="827" pageHeight="1169" math="0" shadow="0">
      <root>
        <mxCell id="0" />
        <mxCell id="1" parent="0" />
      </root>
    </mxGraphModel>
  </diagram>
</mxfile>
